<svg xmlns="http://www.w3.org/2000/svg" xmlns:xlink="http://www.w3.org/1999/xlink" width="100" zoomAndPan="magnify" viewBox="0 0 75 74.999997" height="100" preserveAspectRatio="xMidYMid meet" version="1.2"><g id="b4c2b57b19"><path style="fill-rule:nonzero;fill:#1877f2;fill-opacity:1;stroke-width:1;stroke-linecap:butt;stroke-linejoin:miter;stroke:#4267b2;stroke-opacity:1;stroke-miterlimit:10;" d="M 462.693139 234.603613 C 462.693139 241.866191 462.345092 249.12877 461.625795 256.368145 C 460.906498 263.630724 459.839154 270.80049 458.423763 277.947053 C 457.008373 285.093616 455.244935 292.147366 453.133451 299.108304 C 451.021966 306.069242 448.562435 312.914164 445.77806 319.643071 C 442.993684 326.348775 439.884465 332.915259 436.473606 339.342525 C 433.039543 345.769791 429.30384 351.988229 425.243293 358.044245 C 421.205949 364.100261 416.890167 369.947449 412.272745 375.562606 C 407.655323 381.177762 402.759463 386.584091 397.608369 391.711982 C 392.480478 396.863076 387.097353 401.735732 381.458993 406.353154 C 375.843837 410.970576 369.996649 415.309561 363.940633 419.346905 C 357.90782 423.384249 351.666179 427.143156 345.238913 430.554015 C 338.83485 433.988078 332.245162 437.097297 325.539459 439.881672 C 318.810552 442.666047 311.96563 445.125579 305.004692 447.237063 C 298.043754 449.348548 290.990003 451.111985 283.843441 452.527376 C 276.720081 453.942767 269.527112 455.01011 262.287736 455.729407 C 255.048361 456.448704 247.785782 456.796751 240.5 456.796751 C 233.214219 456.796751 225.95164 456.448704 218.712265 455.729407 C 211.472889 455.01011 204.27992 453.942767 197.15656 452.527376 C 190.009997 451.111985 182.956247 449.348548 175.995309 447.237063 C 169.034371 445.125579 162.189449 442.666047 155.460542 439.881672 C 148.754839 437.097297 142.165151 433.988078 135.761088 430.554015 C 129.333822 427.143156 123.092181 423.384249 117.059368 419.346905 C 111.003352 415.309561 105.156164 410.970576 99.541008 406.353154 C 93.902648 401.735732 88.519523 396.863076 83.391632 391.711982 C 78.240538 386.584091 73.344678 381.177762 68.727256 375.562606 C 64.109834 369.947449 59.794052 364.100261 55.756708 358.044245 C 51.696161 351.988229 47.960458 345.769791 44.526395 339.342525 C 41.115535 332.915259 38.006316 326.348775 35.221941 319.643071 C 32.437566 312.914164 29.978035 306.069242 27.86655 299.108304 C 25.755066 292.147366 23.991628 285.093616 22.576237 277.947053 C 21.160847 270.80049 20.093503 263.630724 19.374206 256.368145 C 18.654909 249.12877 18.306862 241.866191 18.306862 234.603613 C 18.306862 227.317831 18.654909 220.055253 19.374206 212.815877 C 20.093503 205.576502 21.160847 198.383532 22.576237 191.260173 C 23.991628 184.11361 25.755066 177.059859 27.86655 170.098921 C 29.978035 163.137983 32.437566 156.293061 35.221941 149.564155 C 38.006316 142.835248 41.115535 136.268763 44.526395 129.8647 C 47.960458 123.437434 51.696161 117.195793 55.756708 111.16298 C 59.794052 105.106964 64.109834 99.259777 68.727256 93.64462 C 73.344678 88.00626 78.240538 82.623135 83.391632 77.472041 C 88.519523 72.34415 93.902648 67.44829 99.541008 62.830868 C 105.156164 58.213446 111.003352 53.897664 117.059368 49.837117 C 123.092181 45.799773 129.333822 42.06407 135.761088 38.630007 C 142.165151 35.195945 148.754839 32.109929 155.460542 29.325554 C 162.189449 26.517975 169.034371 24.081647 175.995309 21.970163 C 182.956247 19.858678 190.009997 18.09524 197.15656 16.67985 C 204.27992 15.241256 211.472889 14.173912 218.712265 13.477818 C 225.95164 12.758521 233.214219 12.410474 240.5 12.410474 C 247.785782 12.410474 255.048361 12.758521 262.287736 13.477818 C 269.527112 14.173912 276.720081 15.241256 283.843441 16.67985 C 290.990003 18.09524 298.043754 19.858678 305.004692 21.970163 C 311.96563 24.081647 318.810552 26.517975 325.539459 29.325554 C 332.245162 32.109929 338.83485 35.195945 345.238913 38.630007 C 351.666179 42.06407 357.90782 45.799773 363.940633 49.837117 C 369.996649 53.897664 375.843837 58.213446 381.458993 62.830868 C 387.097353 67.44829 392.480478 72.34415 397.608369 77.472041 C 402.759463 82.623135 407.655323 88.00626 412.272745 93.64462 C 416.890167 99.259777 421.205949 105.106964 425.243293 111.16298 C 429.30384 117.195793 433.039543 123.437434 436.473606 129.8647 C 439.884465 136.268763 442.993684 142.835248 445.77806 149.564155 C 448.562435 156.293061 451.021966 163.137983 453.133451 170.098921 C 455.244935 177.059859 457.008373 184.11361 458.423763 191.260173 C 459.839154 198.383532 460.906498 205.576502 461.625795 212.815877 C 462.345092 220.055253 462.693139 227.317831 462.693139 234.603613 Z M 462.693139 234.603613 " transform="matrix(0.16835,0,0,0.16835,-2.988213,-2.003368)"/><path style="fill-rule:nonzero;fill:#ffffff;fill-opacity:1;stroke-width:1;stroke-linecap:butt;stroke-linejoin:miter;stroke:#ffffff;stroke-opacity:1;stroke-miterlimit:10;" d="M 292.707035 78.005713 C 275.003049 81.207744 268.900627 84.200947 258.691251 90.001729 C 247.808985 96.196964 240.19836 102.693839 235.000859 108.007355 C 217.992968 125.595325 214.210858 141.999935 211.008827 154.692045 C 206.20578 173.393765 206.693045 191.004938 206.693045 191.004938 L 206.693045 204.694783 L 171.006637 204.694783 L 171.006637 266.809552 L 206.693045 266.809552 L 206.693045 454.290813 C 217.691327 456.007845 228.99125 456.889564 240.5 456.889564 C 257.507892 456.889564 274.098127 455.01011 289.992269 451.390423 L 289.992269 266.809552 L 344.310788 266.809552 L 344.310788 204.694783 L 289.992269 204.694783 L 289.992269 191.492204 C 289.992269 191.492204 289.992269 189.102282 289.992269 188.800641 C 289.992269 188.499001 289.992269 188.104547 289.992269 187.802907 C 289.992269 185.111344 290.108285 181.097203 290.711566 177.593531 C 292.196566 168.497906 295.305785 161.397749 300.503285 155.109702 C 306.489692 147.893529 313.497036 144.807514 321.293287 143.600951 C 340.598288 140.607748 356.701257 147.290248 356.701257 147.290248 L 359.694461 81.99665 C 359.694461 81.99665 347.605632 78.098525 327.604537 76.706338 C 313.497036 75.708603 300.990551 76.49751 292.707035 78.005713 Z M 292.707035 78.005713 " transform="matrix(0.16835,0,0,0.16835,-2.988213,-2.003368)"/></g></svg>